<mxfile host="Electron" modified="2024-09-26T17:42:11.176Z" agent="Mozilla/5.0 (Windows NT 10.0; Win64; x64) AppleWebKit/537.36 (KHTML, like Gecko) draw.io/24.0.4 Chrome/120.0.6099.109 Electron/28.1.0 Safari/537.36" etag="LOMKxX7Z8EXpaB06L5jp" version="24.0.4" type="device">
  <diagram name="Страница — 1" id="fHvxciMUewtH3KyjnSEp">
    <mxGraphModel dx="1105" dy="662" grid="0" gridSize="10" guides="1" tooltips="1" connect="1" arrows="1" fold="1" page="1" pageScale="1" pageWidth="4681" pageHeight="3300" math="0" shadow="0">
      <root>
        <mxCell id="0" />
        <mxCell id="1" parent="0" />
        <mxCell id="jmJejw3v0kQWSH8vtQN6-7" value="" style="edgeStyle=orthogonalEdgeStyle;rounded=0;orthogonalLoop=1;jettySize=auto;html=1;" edge="1" parent="1" source="jmJejw3v0kQWSH8vtQN6-1" target="jmJejw3v0kQWSH8vtQN6-6">
          <mxGeometry relative="1" as="geometry" />
        </mxCell>
        <mxCell id="jmJejw3v0kQWSH8vtQN6-1" value="Начало" style="ellipse;whiteSpace=wrap;html=1;" vertex="1" parent="1">
          <mxGeometry x="480" y="30" width="80" height="40" as="geometry" />
        </mxCell>
        <mxCell id="jmJejw3v0kQWSH8vtQN6-2" value="&lt;div&gt;using System;&lt;/div&gt;&lt;div&gt;using System.Collections.Generic;&lt;/div&gt;&lt;div&gt;using System.Linq;&lt;/div&gt;&lt;div&gt;using System.Text;&lt;/div&gt;&lt;div&gt;using System.Threading.Tasks;&lt;/div&gt;&lt;div&gt;&lt;div&gt;namespace Laba_1_OOP_Part_2_&lt;/div&gt;&lt;div&gt;{&lt;/div&gt;&lt;div&gt;&amp;nbsp; &amp;nbsp; internal class Program&lt;/div&gt;&lt;div&gt;&amp;nbsp; &amp;nbsp; {&lt;/div&gt;&lt;div&gt;&amp;nbsp; &amp;nbsp; &amp;nbsp; &amp;nbsp; static void Main(string[] args)&lt;/div&gt;&lt;div&gt;&amp;nbsp; &amp;nbsp; &amp;nbsp; &amp;nbsp; {&lt;/div&gt;&lt;/div&gt;" style="text;html=1;align=left;verticalAlign=middle;whiteSpace=wrap;rounded=0;" vertex="1" parent="1">
          <mxGeometry x="640" y="40" width="210" height="160" as="geometry" />
        </mxCell>
        <mxCell id="jmJejw3v0kQWSH8vtQN6-3" value="" style="endArrow=none;html=1;rounded=0;" edge="1" parent="1">
          <mxGeometry width="50" height="50" relative="1" as="geometry">
            <mxPoint x="680" y="200" as="sourcePoint" />
            <mxPoint x="640" y="200" as="targetPoint" />
          </mxGeometry>
        </mxCell>
        <mxCell id="jmJejw3v0kQWSH8vtQN6-4" value="" style="endArrow=none;html=1;rounded=0;exitX=0;exitY=1;exitDx=0;exitDy=0;entryX=0;entryY=0;entryDx=0;entryDy=0;" edge="1" parent="1" source="jmJejw3v0kQWSH8vtQN6-2" target="jmJejw3v0kQWSH8vtQN6-2">
          <mxGeometry width="50" height="50" relative="1" as="geometry">
            <mxPoint x="550" y="130" as="sourcePoint" />
            <mxPoint x="600" y="80" as="targetPoint" />
          </mxGeometry>
        </mxCell>
        <mxCell id="jmJejw3v0kQWSH8vtQN6-5" value="" style="endArrow=none;html=1;rounded=0;" edge="1" parent="1">
          <mxGeometry width="50" height="50" relative="1" as="geometry">
            <mxPoint x="640" y="40" as="sourcePoint" />
            <mxPoint x="680" y="40" as="targetPoint" />
          </mxGeometry>
        </mxCell>
        <mxCell id="jmJejw3v0kQWSH8vtQN6-9" value="" style="edgeStyle=orthogonalEdgeStyle;rounded=0;orthogonalLoop=1;jettySize=auto;html=1;" edge="1" parent="1" source="jmJejw3v0kQWSH8vtQN6-6" target="jmJejw3v0kQWSH8vtQN6-8">
          <mxGeometry relative="1" as="geometry" />
        </mxCell>
        <mxCell id="jmJejw3v0kQWSH8vtQN6-6" value="string buff;" style="whiteSpace=wrap;html=1;" vertex="1" parent="1">
          <mxGeometry x="475" y="170" width="90" height="30" as="geometry" />
        </mxCell>
        <mxCell id="jmJejw3v0kQWSH8vtQN6-53" value="" style="edgeStyle=orthogonalEdgeStyle;rounded=0;orthogonalLoop=1;jettySize=auto;html=1;" edge="1" parent="1" source="jmJejw3v0kQWSH8vtQN6-8" target="jmJejw3v0kQWSH8vtQN6-52">
          <mxGeometry relative="1" as="geometry" />
        </mxCell>
        <mxCell id="jmJejw3v0kQWSH8vtQN6-8" value="float x,y;" style="whiteSpace=wrap;html=1;" vertex="1" parent="1">
          <mxGeometry x="487.5" y="220" width="65" height="20" as="geometry" />
        </mxCell>
        <mxCell id="jmJejw3v0kQWSH8vtQN6-49" value="" style="endArrow=none;html=1;rounded=0;" edge="1" parent="1">
          <mxGeometry width="50" height="50" relative="1" as="geometry">
            <mxPoint x="520" y="120" as="sourcePoint" />
            <mxPoint x="550" y="120" as="targetPoint" />
          </mxGeometry>
        </mxCell>
        <mxCell id="jmJejw3v0kQWSH8vtQN6-50" value="" style="endArrow=none;html=1;rounded=0;" edge="1" parent="1">
          <mxGeometry width="50" height="50" relative="1" as="geometry">
            <mxPoint x="560" y="120" as="sourcePoint" />
            <mxPoint x="590" y="120" as="targetPoint" />
          </mxGeometry>
        </mxCell>
        <mxCell id="jmJejw3v0kQWSH8vtQN6-51" value="" style="endArrow=none;html=1;rounded=0;" edge="1" parent="1">
          <mxGeometry width="50" height="50" relative="1" as="geometry">
            <mxPoint x="600" y="120" as="sourcePoint" />
            <mxPoint x="640" y="120" as="targetPoint" />
          </mxGeometry>
        </mxCell>
        <mxCell id="jmJejw3v0kQWSH8vtQN6-55" value="" style="edgeStyle=orthogonalEdgeStyle;rounded=0;orthogonalLoop=1;jettySize=auto;html=1;" edge="1" parent="1" source="jmJejw3v0kQWSH8vtQN6-52" target="jmJejw3v0kQWSH8vtQN6-54">
          <mxGeometry relative="1" as="geometry" />
        </mxCell>
        <mxCell id="jmJejw3v0kQWSH8vtQN6-52" value="Console.WriteLine(&quot;Проверка принадлежности точки&quot;);" style="shape=parallelogram;perimeter=parallelogramPerimeter;whiteSpace=wrap;html=1;fixedSize=1;" vertex="1" parent="1">
          <mxGeometry x="350" y="260" width="340" height="30" as="geometry" />
        </mxCell>
        <mxCell id="jmJejw3v0kQWSH8vtQN6-57" value="" style="edgeStyle=orthogonalEdgeStyle;rounded=0;orthogonalLoop=1;jettySize=auto;html=1;" edge="1" parent="1" source="jmJejw3v0kQWSH8vtQN6-54" target="jmJejw3v0kQWSH8vtQN6-56">
          <mxGeometry relative="1" as="geometry" />
        </mxCell>
        <mxCell id="jmJejw3v0kQWSH8vtQN6-54" value="Console.WriteLine(&quot;Введите координату x: &quot;);" style="shape=parallelogram;perimeter=parallelogramPerimeter;whiteSpace=wrap;html=1;fixedSize=1;" vertex="1" parent="1">
          <mxGeometry x="380" y="310" width="280" height="30" as="geometry" />
        </mxCell>
        <mxCell id="jmJejw3v0kQWSH8vtQN6-59" value="" style="edgeStyle=orthogonalEdgeStyle;rounded=0;orthogonalLoop=1;jettySize=auto;html=1;" edge="1" parent="1" source="jmJejw3v0kQWSH8vtQN6-56" target="jmJejw3v0kQWSH8vtQN6-58">
          <mxGeometry relative="1" as="geometry" />
        </mxCell>
        <mxCell id="jmJejw3v0kQWSH8vtQN6-56" value="buff= Console.ReadLine();" style="shape=parallelogram;perimeter=parallelogramPerimeter;whiteSpace=wrap;html=1;fixedSize=1;" vertex="1" parent="1">
          <mxGeometry x="420" y="360" width="200" height="20" as="geometry" />
        </mxCell>
        <mxCell id="jmJejw3v0kQWSH8vtQN6-61" value="" style="edgeStyle=orthogonalEdgeStyle;rounded=0;orthogonalLoop=1;jettySize=auto;html=1;" edge="1" parent="1" source="jmJejw3v0kQWSH8vtQN6-58" target="jmJejw3v0kQWSH8vtQN6-60">
          <mxGeometry relative="1" as="geometry" />
        </mxCell>
        <mxCell id="jmJejw3v0kQWSH8vtQN6-58" value="x=float.Parse(buff);" style="whiteSpace=wrap;html=1;" vertex="1" parent="1">
          <mxGeometry x="460" y="400" width="120" height="30" as="geometry" />
        </mxCell>
        <mxCell id="jmJejw3v0kQWSH8vtQN6-63" value="" style="edgeStyle=orthogonalEdgeStyle;rounded=0;orthogonalLoop=1;jettySize=auto;html=1;" edge="1" parent="1" source="jmJejw3v0kQWSH8vtQN6-60" target="jmJejw3v0kQWSH8vtQN6-62">
          <mxGeometry relative="1" as="geometry" />
        </mxCell>
        <mxCell id="jmJejw3v0kQWSH8vtQN6-60" value="Console.WriteLine(&quot;Введите координату y: &quot;);" style="shape=parallelogram;perimeter=parallelogramPerimeter;whiteSpace=wrap;html=1;fixedSize=1;" vertex="1" parent="1">
          <mxGeometry x="380" y="450" width="280" height="25" as="geometry" />
        </mxCell>
        <mxCell id="jmJejw3v0kQWSH8vtQN6-65" value="" style="edgeStyle=orthogonalEdgeStyle;rounded=0;orthogonalLoop=1;jettySize=auto;html=1;" edge="1" parent="1" source="jmJejw3v0kQWSH8vtQN6-62" target="jmJejw3v0kQWSH8vtQN6-64">
          <mxGeometry relative="1" as="geometry" />
        </mxCell>
        <mxCell id="jmJejw3v0kQWSH8vtQN6-62" value="buff = Console.ReadLine();" style="shape=parallelogram;perimeter=parallelogramPerimeter;whiteSpace=wrap;html=1;fixedSize=1;" vertex="1" parent="1">
          <mxGeometry x="425" y="500" width="190" height="25" as="geometry" />
        </mxCell>
        <mxCell id="jmJejw3v0kQWSH8vtQN6-67" value="" style="edgeStyle=orthogonalEdgeStyle;rounded=0;orthogonalLoop=1;jettySize=auto;html=1;" edge="1" parent="1" source="jmJejw3v0kQWSH8vtQN6-64" target="jmJejw3v0kQWSH8vtQN6-66">
          <mxGeometry relative="1" as="geometry" />
        </mxCell>
        <mxCell id="jmJejw3v0kQWSH8vtQN6-64" value="y = float.Parse(buff);" style="whiteSpace=wrap;html=1;" vertex="1" parent="1">
          <mxGeometry x="460" y="550" width="120" height="22.5" as="geometry" />
        </mxCell>
        <mxCell id="jmJejw3v0kQWSH8vtQN6-69" value="" style="edgeStyle=orthogonalEdgeStyle;rounded=0;orthogonalLoop=1;jettySize=auto;html=1;" edge="1" parent="1" source="jmJejw3v0kQWSH8vtQN6-66" target="jmJejw3v0kQWSH8vtQN6-68">
          <mxGeometry relative="1" as="geometry" />
        </mxCell>
        <mxCell id="jmJejw3v0kQWSH8vtQN6-66" value="bool flag=false;" style="whiteSpace=wrap;html=1;" vertex="1" parent="1">
          <mxGeometry x="475" y="590" width="90" height="26.25" as="geometry" />
        </mxCell>
        <mxCell id="jmJejw3v0kQWSH8vtQN6-71" value="" style="edgeStyle=orthogonalEdgeStyle;rounded=0;orthogonalLoop=1;jettySize=auto;html=1;entryX=0.5;entryY=0;entryDx=0;entryDy=0;" edge="1" parent="1" source="jmJejw3v0kQWSH8vtQN6-68" target="jmJejw3v0kQWSH8vtQN6-79">
          <mxGeometry relative="1" as="geometry">
            <mxPoint x="199.04347826086996" y="720" as="targetPoint" />
          </mxGeometry>
        </mxCell>
        <mxCell id="jmJejw3v0kQWSH8vtQN6-68" value="if(y&lt;=x+2 &amp;&amp; y&gt;=0 &amp;&amp; y &lt;= -x + 2)" style="rhombus;whiteSpace=wrap;html=1;" vertex="1" parent="1">
          <mxGeometry x="400" y="640" width="240" height="50.62" as="geometry" />
        </mxCell>
        <mxCell id="jmJejw3v0kQWSH8vtQN6-72" value="1" style="text;html=1;align=center;verticalAlign=middle;resizable=0;points=[];autosize=1;strokeColor=none;fillColor=none;" vertex="1" parent="1">
          <mxGeometry x="385" y="638" width="30" height="30" as="geometry" />
        </mxCell>
        <mxCell id="jmJejw3v0kQWSH8vtQN6-73" value="" style="endArrow=classic;html=1;rounded=0;" edge="1" parent="1">
          <mxGeometry width="50" height="50" relative="1" as="geometry">
            <mxPoint x="520" y="780" as="sourcePoint" />
            <mxPoint x="520" y="810" as="targetPoint" />
          </mxGeometry>
        </mxCell>
        <mxCell id="jmJejw3v0kQWSH8vtQN6-74" value="" style="endArrow=classic;html=1;rounded=0;exitX=1;exitY=0.5;exitDx=0;exitDy=0;" edge="1" parent="1" source="jmJejw3v0kQWSH8vtQN6-68">
          <mxGeometry width="50" height="50" relative="1" as="geometry">
            <mxPoint x="650" y="680" as="sourcePoint" />
            <mxPoint x="520" y="780" as="targetPoint" />
            <Array as="points">
              <mxPoint x="670" y="666" />
              <mxPoint x="670" y="780" />
            </Array>
          </mxGeometry>
        </mxCell>
        <mxCell id="jmJejw3v0kQWSH8vtQN6-75" value="" style="endArrow=classic;html=1;rounded=0;exitX=0.5;exitY=1;exitDx=0;exitDy=0;" edge="1" parent="1" source="jmJejw3v0kQWSH8vtQN6-79">
          <mxGeometry width="50" height="50" relative="1" as="geometry">
            <mxPoint x="160" y="790" as="sourcePoint" />
            <mxPoint x="520" y="780" as="targetPoint" />
            <Array as="points">
              <mxPoint x="200" y="780" />
            </Array>
          </mxGeometry>
        </mxCell>
        <mxCell id="jmJejw3v0kQWSH8vtQN6-76" value="0" style="text;html=1;align=center;verticalAlign=middle;resizable=0;points=[];autosize=1;strokeColor=none;fillColor=none;" vertex="1" parent="1">
          <mxGeometry x="621" y="638" width="30" height="30" as="geometry" />
        </mxCell>
        <mxCell id="jmJejw3v0kQWSH8vtQN6-77" value="{" style="text;html=1;align=center;verticalAlign=middle;resizable=0;points=[];autosize=1;strokeColor=none;fillColor=none;" vertex="1" parent="1">
          <mxGeometry x="195" y="688" width="30" height="30" as="geometry" />
        </mxCell>
        <mxCell id="jmJejw3v0kQWSH8vtQN6-78" value="}" style="text;html=1;align=center;verticalAlign=middle;resizable=0;points=[];autosize=1;strokeColor=none;fillColor=none;" vertex="1" parent="1">
          <mxGeometry x="195" y="750" width="30" height="30" as="geometry" />
        </mxCell>
        <mxCell id="jmJejw3v0kQWSH8vtQN6-79" value="flag = true;" style="rounded=0;whiteSpace=wrap;html=1;" vertex="1" parent="1">
          <mxGeometry x="160" y="720" width="80" height="30" as="geometry" />
        </mxCell>
        <mxCell id="jmJejw3v0kQWSH8vtQN6-82" value="" style="edgeStyle=orthogonalEdgeStyle;rounded=0;orthogonalLoop=1;jettySize=auto;html=1;" edge="1" parent="1" source="jmJejw3v0kQWSH8vtQN6-80" target="jmJejw3v0kQWSH8vtQN6-81">
          <mxGeometry relative="1" as="geometry" />
        </mxCell>
        <mxCell id="jmJejw3v0kQWSH8vtQN6-85" value="" style="edgeStyle=orthogonalEdgeStyle;rounded=0;orthogonalLoop=1;jettySize=auto;html=1;" edge="1" parent="1" source="jmJejw3v0kQWSH8vtQN6-80" target="jmJejw3v0kQWSH8vtQN6-84">
          <mxGeometry relative="1" as="geometry" />
        </mxCell>
        <mxCell id="jmJejw3v0kQWSH8vtQN6-80" value="if (flag == true)" style="rhombus;whiteSpace=wrap;html=1;" vertex="1" parent="1">
          <mxGeometry x="455" y="810" width="130" height="50" as="geometry" />
        </mxCell>
        <mxCell id="jmJejw3v0kQWSH8vtQN6-81" value="Console.WriteLine(&quot;Точка принадлежит заштрихованной области&quot;);" style="shape=parallelogram;perimeter=parallelogramPerimeter;whiteSpace=wrap;html=1;fixedSize=1;" vertex="1" parent="1">
          <mxGeometry x="50" y="862" width="400" height="35" as="geometry" />
        </mxCell>
        <mxCell id="jmJejw3v0kQWSH8vtQN6-83" value="1" style="text;html=1;align=center;verticalAlign=middle;resizable=0;points=[];autosize=1;strokeColor=none;fillColor=none;" vertex="1" parent="1">
          <mxGeometry x="435" y="808" width="30" height="30" as="geometry" />
        </mxCell>
        <mxCell id="jmJejw3v0kQWSH8vtQN6-84" value="Console.WriteLine(&quot;Точка НЕ принадлежит заштрихованной области&quot;);" style="shape=parallelogram;perimeter=parallelogramPerimeter;whiteSpace=wrap;html=1;fixedSize=1;" vertex="1" parent="1">
          <mxGeometry x="590" y="862" width="420" height="35" as="geometry" />
        </mxCell>
        <mxCell id="jmJejw3v0kQWSH8vtQN6-86" value="0" style="text;html=1;align=center;verticalAlign=middle;resizable=0;points=[];autosize=1;strokeColor=none;fillColor=none;" vertex="1" parent="1">
          <mxGeometry x="575" y="808" width="30" height="30" as="geometry" />
        </mxCell>
        <mxCell id="jmJejw3v0kQWSH8vtQN6-87" value="" style="endArrow=classic;html=1;rounded=0;" edge="1" parent="1" target="jmJejw3v0kQWSH8vtQN6-90">
          <mxGeometry width="50" height="50" relative="1" as="geometry">
            <mxPoint x="519" y="920" as="sourcePoint" />
            <mxPoint x="520" y="950" as="targetPoint" />
          </mxGeometry>
        </mxCell>
        <mxCell id="jmJejw3v0kQWSH8vtQN6-88" value="" style="endArrow=classic;html=1;rounded=0;" edge="1" parent="1">
          <mxGeometry width="50" height="50" relative="1" as="geometry">
            <mxPoint x="800" y="897" as="sourcePoint" />
            <mxPoint x="520" y="920" as="targetPoint" />
            <Array as="points">
              <mxPoint x="800" y="920" />
            </Array>
          </mxGeometry>
        </mxCell>
        <mxCell id="jmJejw3v0kQWSH8vtQN6-89" value="" style="endArrow=classic;html=1;rounded=0;" edge="1" parent="1">
          <mxGeometry width="50" height="50" relative="1" as="geometry">
            <mxPoint x="250" y="897" as="sourcePoint" />
            <mxPoint x="520" y="920" as="targetPoint" />
            <Array as="points">
              <mxPoint x="250" y="920" />
            </Array>
          </mxGeometry>
        </mxCell>
        <mxCell id="jmJejw3v0kQWSH8vtQN6-90" value="&lt;span style=&quot;white-space: pre;&quot;&gt;&#x9;&lt;/span&gt;}&lt;br&gt;&amp;nbsp; &amp;nbsp; }&lt;br&gt;}&lt;div&gt;конец&lt;/div&gt;" style="ellipse;whiteSpace=wrap;html=1;aspect=fixed;" vertex="1" parent="1">
          <mxGeometry x="480" y="960" width="80" height="80" as="geometry" />
        </mxCell>
        <mxCell id="jmJejw3v0kQWSH8vtQN6-91" value="{" style="text;html=1;align=center;verticalAlign=middle;resizable=0;points=[];autosize=1;strokeColor=none;fillColor=none;" vertex="1" parent="1">
          <mxGeometry x="252" y="834" width="22" height="26" as="geometry" />
        </mxCell>
        <mxCell id="jmJejw3v0kQWSH8vtQN6-92" value="}" style="text;html=1;align=center;verticalAlign=middle;resizable=0;points=[];autosize=1;strokeColor=none;fillColor=none;" vertex="1" parent="1">
          <mxGeometry x="252" y="891" width="22" height="26" as="geometry" />
        </mxCell>
      </root>
    </mxGraphModel>
  </diagram>
</mxfile>
